<mxfile host="app.diagrams.net" modified="2024-03-16T09:46:00.900Z" agent="Mozilla/5.0 (X11; Linux x86_64) AppleWebKit/537.36 (KHTML, like Gecko) Chrome/122.0.0.0 Safari/537.36" etag="woRxcyGSJrB04AmNkyvA" version="24.0.7" type="device">
  <diagram name="Page-1" id="FQD0Ai6kWYTOMfjxD6Z4">
    <mxGraphModel dx="2881" dy="1184" grid="1" gridSize="10" guides="1" tooltips="1" connect="1" arrows="1" fold="1" page="1" pageScale="1" pageWidth="850" pageHeight="1100" math="0" shadow="0">
      <root>
        <mxCell id="0" />
        <mxCell id="1" parent="0" />
        <mxCell id="HDlpYzZ-u6DyT0vQrBdQ-30" value="" style="whiteSpace=wrap;html=1;aspect=fixed;" vertex="1" parent="1">
          <mxGeometry x="200" width="730" height="730" as="geometry" />
        </mxCell>
        <mxCell id="HDlpYzZ-u6DyT0vQrBdQ-29" style="rounded=0;orthogonalLoop=1;jettySize=auto;html=1;endArrow=block;endFill=0;" edge="1" parent="1" source="HDlpYzZ-u6DyT0vQrBdQ-1" target="HDlpYzZ-u6DyT0vQrBdQ-25">
          <mxGeometry relative="1" as="geometry" />
        </mxCell>
        <mxCell id="HDlpYzZ-u6DyT0vQrBdQ-1" value="Utiliazator Client" style="shape=umlActor;verticalLabelPosition=bottom;verticalAlign=top;html=1;outlineConnect=0;" vertex="1" parent="1">
          <mxGeometry x="80" y="100" width="70" height="120" as="geometry" />
        </mxCell>
        <mxCell id="HDlpYzZ-u6DyT0vQrBdQ-24" style="rounded=0;orthogonalLoop=1;jettySize=auto;html=1;entryX=0.986;entryY=0.686;entryDx=0;entryDy=0;endArrow=none;endFill=0;entryPerimeter=0;" edge="1" parent="1" source="HDlpYzZ-u6DyT0vQrBdQ-2" target="HDlpYzZ-u6DyT0vQrBdQ-9">
          <mxGeometry relative="1" as="geometry" />
        </mxCell>
        <mxCell id="HDlpYzZ-u6DyT0vQrBdQ-2" value="&amp;lt;&amp;lt;actor&amp;gt;&amp;gt;&lt;br&gt;&lt;br&gt;&lt;b&gt;Serviciul PayPal&lt;/b&gt;" style="html=1;align=center;verticalAlign=middle;dashed=0;whiteSpace=wrap;" vertex="1" parent="1">
          <mxGeometry x="1050" y="195" width="160" height="70" as="geometry" />
        </mxCell>
        <mxCell id="HDlpYzZ-u6DyT0vQrBdQ-4" value="Cos de produse" style="ellipse;whiteSpace=wrap;html=1;" vertex="1" parent="1">
          <mxGeometry x="280" y="10" width="140" height="70" as="geometry" />
        </mxCell>
        <mxCell id="HDlpYzZ-u6DyT0vQrBdQ-15" style="rounded=0;orthogonalLoop=1;jettySize=auto;html=1;entryX=0;entryY=0.5;entryDx=0;entryDy=0;dashed=1;endArrow=classic;endFill=1;" edge="1" parent="1" source="HDlpYzZ-u6DyT0vQrBdQ-5" target="HDlpYzZ-u6DyT0vQrBdQ-9">
          <mxGeometry relative="1" as="geometry" />
        </mxCell>
        <mxCell id="HDlpYzZ-u6DyT0vQrBdQ-16" value="&amp;lt;&amp;lt;include&amp;gt;&amp;gt;" style="edgeLabel;html=1;align=center;verticalAlign=middle;resizable=0;points=[];" vertex="1" connectable="0" parent="HDlpYzZ-u6DyT0vQrBdQ-15">
          <mxGeometry x="0.0357" relative="1" as="geometry">
            <mxPoint as="offset" />
          </mxGeometry>
        </mxCell>
        <mxCell id="HDlpYzZ-u6DyT0vQrBdQ-17" style="rounded=0;orthogonalLoop=1;jettySize=auto;html=1;entryX=0.5;entryY=1;entryDx=0;entryDy=0;dashed=1;" edge="1" parent="1" source="HDlpYzZ-u6DyT0vQrBdQ-5" target="HDlpYzZ-u6DyT0vQrBdQ-4">
          <mxGeometry relative="1" as="geometry" />
        </mxCell>
        <mxCell id="HDlpYzZ-u6DyT0vQrBdQ-18" value="&amp;lt;&amp;lt;include&amp;gt;&amp;gt;" style="edgeLabel;html=1;align=center;verticalAlign=middle;resizable=0;points=[];" vertex="1" connectable="0" parent="HDlpYzZ-u6DyT0vQrBdQ-17">
          <mxGeometry x="-0.1673" relative="1" as="geometry">
            <mxPoint as="offset" />
          </mxGeometry>
        </mxCell>
        <mxCell id="HDlpYzZ-u6DyT0vQrBdQ-5" value="Cumparare produse" style="ellipse;whiteSpace=wrap;html=1;" vertex="1" parent="1">
          <mxGeometry x="280" y="125" width="140" height="70" as="geometry" />
        </mxCell>
        <mxCell id="HDlpYzZ-u6DyT0vQrBdQ-7" style="rounded=0;orthogonalLoop=1;jettySize=auto;html=1;entryX=0;entryY=0.5;entryDx=0;entryDy=0;endArrow=none;endFill=0;" edge="1" parent="1" source="HDlpYzZ-u6DyT0vQrBdQ-1" target="HDlpYzZ-u6DyT0vQrBdQ-5">
          <mxGeometry relative="1" as="geometry">
            <Array as="points">
              <mxPoint x="260" y="160" />
            </Array>
          </mxGeometry>
        </mxCell>
        <mxCell id="HDlpYzZ-u6DyT0vQrBdQ-9" value="Plasare comanda" style="ellipse;whiteSpace=wrap;html=1;" vertex="1" parent="1">
          <mxGeometry x="500" y="120" width="140" height="70" as="geometry" />
        </mxCell>
        <mxCell id="HDlpYzZ-u6DyT0vQrBdQ-10" value="Obtinere Factura" style="ellipse;whiteSpace=wrap;html=1;" vertex="1" parent="1">
          <mxGeometry x="770" y="110" width="140" height="70" as="geometry" />
        </mxCell>
        <mxCell id="HDlpYzZ-u6DyT0vQrBdQ-31" style="rounded=0;orthogonalLoop=1;jettySize=auto;html=1;endArrow=none;endFill=0;" edge="1" parent="1" source="HDlpYzZ-u6DyT0vQrBdQ-11" target="HDlpYzZ-u6DyT0vQrBdQ-25">
          <mxGeometry relative="1" as="geometry">
            <mxPoint x="50" y="350" as="targetPoint" />
          </mxGeometry>
        </mxCell>
        <mxCell id="HDlpYzZ-u6DyT0vQrBdQ-11" value="Autentificare" style="ellipse;whiteSpace=wrap;html=1;" vertex="1" parent="1">
          <mxGeometry x="280" y="320" width="140" height="70" as="geometry" />
        </mxCell>
        <mxCell id="HDlpYzZ-u6DyT0vQrBdQ-34" style="rounded=0;orthogonalLoop=1;jettySize=auto;html=1;endArrow=block;endFill=0;" edge="1" parent="1" source="HDlpYzZ-u6DyT0vQrBdQ-12" target="HDlpYzZ-u6DyT0vQrBdQ-11">
          <mxGeometry relative="1" as="geometry" />
        </mxCell>
        <mxCell id="HDlpYzZ-u6DyT0vQrBdQ-12" value="Recunoastere Faciala&amp;nbsp;" style="ellipse;whiteSpace=wrap;html=1;" vertex="1" parent="1">
          <mxGeometry x="470" y="250" width="140" height="70" as="geometry" />
        </mxCell>
        <mxCell id="HDlpYzZ-u6DyT0vQrBdQ-13" value="Cu Facebook" style="ellipse;whiteSpace=wrap;html=1;" vertex="1" parent="1">
          <mxGeometry x="470" y="400" width="150" height="90" as="geometry" />
        </mxCell>
        <mxCell id="HDlpYzZ-u6DyT0vQrBdQ-28" style="rounded=0;orthogonalLoop=1;jettySize=auto;html=1;endArrow=block;endFill=0;" edge="1" parent="1" source="HDlpYzZ-u6DyT0vQrBdQ-14" target="HDlpYzZ-u6DyT0vQrBdQ-25">
          <mxGeometry relative="1" as="geometry" />
        </mxCell>
        <mxCell id="HDlpYzZ-u6DyT0vQrBdQ-14" value="Utilizator Admin" style="shape=umlActor;verticalLabelPosition=bottom;verticalAlign=top;html=1;outlineConnect=0;" vertex="1" parent="1">
          <mxGeometry x="90" y="475" width="70" height="120" as="geometry" />
        </mxCell>
        <mxCell id="HDlpYzZ-u6DyT0vQrBdQ-19" style="rounded=0;orthogonalLoop=1;jettySize=auto;html=1;entryX=1.007;entryY=0.343;entryDx=0;entryDy=0;entryPerimeter=0;dashed=1;" edge="1" parent="1" source="HDlpYzZ-u6DyT0vQrBdQ-10" target="HDlpYzZ-u6DyT0vQrBdQ-9">
          <mxGeometry relative="1" as="geometry" />
        </mxCell>
        <mxCell id="HDlpYzZ-u6DyT0vQrBdQ-20" value="&amp;lt;&amp;lt;extends&amp;gt;&amp;gt;" style="edgeLabel;html=1;align=center;verticalAlign=middle;resizable=0;points=[];" vertex="1" connectable="0" parent="HDlpYzZ-u6DyT0vQrBdQ-19">
          <mxGeometry x="-0.2607" y="-1" relative="1" as="geometry">
            <mxPoint y="1" as="offset" />
          </mxGeometry>
        </mxCell>
        <mxCell id="HDlpYzZ-u6DyT0vQrBdQ-21" value="Buton optional de solicitare a facturii" style="shape=note;whiteSpace=wrap;html=1;backgroundOutline=1;darkOpacity=0.05;" vertex="1" parent="1">
          <mxGeometry x="680" y="10" width="90" height="55" as="geometry" />
        </mxCell>
        <mxCell id="HDlpYzZ-u6DyT0vQrBdQ-22" value="" style="endArrow=none;dashed=1;html=1;dashPattern=1 3;strokeWidth=2;rounded=0;entryX=0.465;entryY=0.984;entryDx=0;entryDy=0;entryPerimeter=0;" edge="1" parent="1" target="HDlpYzZ-u6DyT0vQrBdQ-21">
          <mxGeometry width="50" height="50" relative="1" as="geometry">
            <mxPoint x="680" y="140" as="sourcePoint" />
            <mxPoint x="750" y="120" as="targetPoint" />
          </mxGeometry>
        </mxCell>
        <mxCell id="HDlpYzZ-u6DyT0vQrBdQ-23" value="" style="endArrow=none;html=1;rounded=0;" edge="1" parent="1">
          <mxGeometry width="50" height="50" relative="1" as="geometry">
            <mxPoint x="360" y="90" as="sourcePoint" />
            <mxPoint x="410" y="40" as="targetPoint" />
          </mxGeometry>
        </mxCell>
        <mxCell id="HDlpYzZ-u6DyT0vQrBdQ-25" value="Utiliazator Client" style="shape=umlActor;verticalLabelPosition=bottom;verticalAlign=top;html=1;outlineConnect=0;" vertex="1" parent="1">
          <mxGeometry x="-40" y="280" width="70" height="120" as="geometry" />
        </mxCell>
        <mxCell id="HDlpYzZ-u6DyT0vQrBdQ-37" style="rounded=0;orthogonalLoop=1;jettySize=auto;html=1;entryX=0.55;entryY=0.986;entryDx=0;entryDy=0;entryPerimeter=0;endArrow=block;endFill=0;" edge="1" parent="1" source="HDlpYzZ-u6DyT0vQrBdQ-13" target="HDlpYzZ-u6DyT0vQrBdQ-11">
          <mxGeometry relative="1" as="geometry" />
        </mxCell>
        <mxCell id="HDlpYzZ-u6DyT0vQrBdQ-41" style="rounded=0;orthogonalLoop=1;jettySize=auto;html=1;endArrow=none;endFill=0;" edge="1" parent="1" source="HDlpYzZ-u6DyT0vQrBdQ-38" target="HDlpYzZ-u6DyT0vQrBdQ-12">
          <mxGeometry relative="1" as="geometry" />
        </mxCell>
        <mxCell id="HDlpYzZ-u6DyT0vQrBdQ-38" value="Serviciul Microsoft" style="image;html=1;image=img/lib/clip_art/computers/Server_128x128.png" vertex="1" parent="1">
          <mxGeometry x="1070" y="280" width="80" height="80" as="geometry" />
        </mxCell>
        <mxCell id="HDlpYzZ-u6DyT0vQrBdQ-40" style="rounded=0;orthogonalLoop=1;jettySize=auto;html=1;entryX=1;entryY=0.5;entryDx=0;entryDy=0;endArrow=none;endFill=0;" edge="1" parent="1" source="HDlpYzZ-u6DyT0vQrBdQ-39" target="HDlpYzZ-u6DyT0vQrBdQ-13">
          <mxGeometry relative="1" as="geometry" />
        </mxCell>
        <mxCell id="HDlpYzZ-u6DyT0vQrBdQ-39" value="Serviciul Facebook" style="image;html=1;image=img/lib/clip_art/computers/Server_128x128.png" vertex="1" parent="1">
          <mxGeometry x="1070" y="410" width="80" height="80" as="geometry" />
        </mxCell>
        <mxCell id="HDlpYzZ-u6DyT0vQrBdQ-43" style="rounded=0;orthogonalLoop=1;jettySize=auto;html=1;endArrow=none;endFill=0;" edge="1" parent="1" source="HDlpYzZ-u6DyT0vQrBdQ-42" target="HDlpYzZ-u6DyT0vQrBdQ-14">
          <mxGeometry relative="1" as="geometry" />
        </mxCell>
        <mxCell id="HDlpYzZ-u6DyT0vQrBdQ-42" value="Gestionare Catalog produse" style="ellipse;whiteSpace=wrap;html=1;" vertex="1" parent="1">
          <mxGeometry x="250" y="500" width="140" height="70" as="geometry" />
        </mxCell>
        <mxCell id="HDlpYzZ-u6DyT0vQrBdQ-48" style="rounded=0;orthogonalLoop=1;jettySize=auto;html=1;endArrow=block;endFill=0;" edge="1" parent="1" source="HDlpYzZ-u6DyT0vQrBdQ-44" target="HDlpYzZ-u6DyT0vQrBdQ-42">
          <mxGeometry relative="1" as="geometry" />
        </mxCell>
        <mxCell id="HDlpYzZ-u6DyT0vQrBdQ-44" value="Editare Produs" style="ellipse;whiteSpace=wrap;html=1;" vertex="1" parent="1">
          <mxGeometry x="350" y="610" width="70" height="70" as="geometry" />
        </mxCell>
        <mxCell id="HDlpYzZ-u6DyT0vQrBdQ-49" style="rounded=0;orthogonalLoop=1;jettySize=auto;html=1;endArrow=block;endFill=0;" edge="1" parent="1" source="HDlpYzZ-u6DyT0vQrBdQ-45" target="HDlpYzZ-u6DyT0vQrBdQ-42">
          <mxGeometry relative="1" as="geometry" />
        </mxCell>
        <mxCell id="HDlpYzZ-u6DyT0vQrBdQ-45" value="Stergere Produs" style="ellipse;whiteSpace=wrap;html=1;" vertex="1" parent="1">
          <mxGeometry x="240" y="610" width="70" height="65" as="geometry" />
        </mxCell>
        <mxCell id="HDlpYzZ-u6DyT0vQrBdQ-46" value="Adaugare Produs" style="ellipse;whiteSpace=wrap;html=1;" vertex="1" parent="1">
          <mxGeometry x="420" y="530" width="70" height="65" as="geometry" />
        </mxCell>
        <mxCell id="HDlpYzZ-u6DyT0vQrBdQ-47" style="rounded=0;orthogonalLoop=1;jettySize=auto;html=1;entryX=0.921;entryY=0.757;entryDx=0;entryDy=0;entryPerimeter=0;endArrow=block;endFill=0;" edge="1" parent="1" source="HDlpYzZ-u6DyT0vQrBdQ-46" target="HDlpYzZ-u6DyT0vQrBdQ-42">
          <mxGeometry relative="1" as="geometry" />
        </mxCell>
      </root>
    </mxGraphModel>
  </diagram>
</mxfile>
